<svg id="Livello_1" data-name="Livello 1"
  xmlns="http://www.w3.org/2000/svg" viewBox="0 0 48 48">
  <title>board</title>
  <g id="board">
    <path d="M32.34,13.52a2.31,2.31,0,0,0,0-3.26l0,0L28.08,6a2.31,2.31,0,0,0-3.27,0l0,0L22.22,8.53l7.55,7.56Z"/>
    <path d="M3,36.38l6.68-.58a1.15,1.15,0,0,0,.63-.29L12,33.81l-7.55-7.5L2.75,28a1,1,0,0,0-.29.63l-.54,6.69a.91.91,0,0,0,.3.77A.81.81,0,0,0,3,36.38Z"/>
    <rect x="7.52" y="15.88" width="19.22" height="10.7" transform="translate(-10 18.33) rotate(-45)"/>
    <path d="M46.82,35.94A4.06,4.06,0,0,0,45.32,34a13.38,13.38,0,0,0-1.46-.87,15.61,15.61,0,0,0-2.66-.87c-1.7-.44-3.34-.78-4.89-1.12A34.77,34.77,0,0,1,31.81,30a6.78,6.78,0,0,1-1.6-.78l-.2-.18h0v-.14c0-.1.2-.39.68-.68a7.65,7.65,0,0,1,1.84-.72,42.29,42.29,0,0,1,9.4-.63h0a1.37,1.37,0,0,0,1.35-1.17,1.27,1.27,0,0,0-1.09-1.44h-.07a35.34,35.34,0,0,0-10.32,0,10.81,10.81,0,0,0-2.76.87,5.6,5.6,0,0,0-1.45,1A3.78,3.78,0,0,0,26.53,28a4.3,4.3,0,0,0-.2,1.07,3.57,3.57,0,0,0,.2,1.21,3.79,3.79,0,0,0,1.21,1.79,9.5,9.5,0,0,0,2.71,1.6,96.77,96.77,0,0,0,9.64,2.66c.68.19,1.31.44,1.84.63a5.5,5.5,0,0,1-1,.24,72.51,72.51,0,0,1-9.4,1.07c-3.24.19-6.49.33-9.73.38l-19.67.48h0A1.2,1.2,0,0,0,1,40.21a1.23,1.23,0,0,0,1.07,1.31c6.58.68,13.12,1.07,19.71,1.16,3.29,0,6.59,0,9.93-.09a67.32,67.32,0,0,0,10.12-1.07,13.21,13.21,0,0,0,2.81-.92,4.14,4.14,0,0,0,1.84-1.55,2.84,2.84,0,0,0,.39-.87A2.59,2.59,0,0,0,47,37.5,3.31,3.31,0,0,0,46.82,35.94Z"/>
  </g>
</svg>