<svg id="Livello_1" data-name="Livello 1"
  xmlns="http://www.w3.org/2000/svg" viewBox="0 0 48 48">
  <title>cam-OFF</title>
  <g id="cam_OFF">
    <path d="M43.82,10.61l-9.24,5.32V14.38a5.52,5.52,0,0,0-5.52-5.52H14.37L36,30.53,43.81,35c1.75,1,3.19.18,3.19-1.85V12.46C47,10.43,45.57,9.61,43.82,10.61Z"/>
    <path d="M34.38,32.91h0l-4.32-4.33L4.55,3A1.33,1.33,0,0,0,2.7,3l-.15.15A1.31,1.31,0,0,0,2.55,5L6.4,8.88A5.53,5.53,0,0,0,1,14.4v17A5.53,5.53,0,0,0,6.52,37H29.06a5.5,5.5,0,0,0,3.84-1.56L42.43,45a1.33,1.33,0,0,0,1.85,0l.14-.15a1.31,1.31,0,0,0,0-1.85Z"/>
  </g>
</svg>