<svg id="Livello_1" data-name="Livello 1"
  xmlns="http://www.w3.org/2000/svg" viewBox="0 0 48 48">
  <title>delete</title>
  <g id="delete">
    <circle cx="30.19" cy="40.67" r="0.77"/>
    <path d="M33.68,42.69a.77.77,0,1,0-.77-.76h0A.76.76,0,0,0,33.68,42.69Z"/>
    <path d="M30.19,38.93a.77.77,0,1,0-.77-.77h0A.78.78,0,0,0,30.19,38.93Z"/>
    <path d="M27.26,41.93a.77.77,0,1,0,.76-.77h0A.77.77,0,0,0,27.26,41.93Z"/>
    <path d="M31.3,43.46a.77.77,0,1,0-.76-.76h0A.76.76,0,0,0,31.3,43.46Z"/>
    <circle cx="32.63" cy="39.69" r="0.77"/>
    <path d="M1.8,33.14a3,3,0,0,0,.14,4.25l8,7.47H8.21a.7.7,0,0,0,0,1.39H41.9a.7.7,0,1,0,0-1.39H20.57l11.5-12.22-16-14.71Z"/>
    <path d="M47,15.42a2.9,2.9,0,0,0-.91-2.09L34.65,2.58a3.14,3.14,0,0,0-2.16-.83,2.67,2.67,0,0,0-2.09,1L17.07,16.88l16,14.71,13.18-14A3.51,3.51,0,0,0,47,15.42Z"/>
  </g>
</svg>