<svg id="Livello_1" data-name="Livello 1"
  xmlns="http://www.w3.org/2000/svg" viewBox="0 0 48 48">
  <defs>
    <style>.cls-1{fill-rule:evenodd;}</style>
  </defs>
  <title>gps-OFF</title>
  <g id="gps_OFF">
    <path class="cls-1" d="M42.44,40.65l-8.72-8.76h0L25.81,24h0l-8.27-8.31h0L11.27,9.36h0L7.55,5.63a1.32,1.32,0,0,0-1.86,0l-.13.13a1.31,1.31,0,0,0,0,1.86h0l4.58,4.6a15.33,15.33,0,0,0-.6,4.26c0,4.5,3.25,9.79,6,14.31C16.25,31.89,16.9,33,17.48,34L25,47l7.25-12.61,8.22,8.25a1.31,1.31,0,0,0,1.85,0l.13-.13a1.31,1.31,0,0,0,0-1.86ZM19.6,21.73h0Z"/>
    <path class="cls-1" d="M19.69,11.14a7.51,7.51,0,0,1,10.6,0l0,0a7.5,7.5,0,0,1,2.16,5.26,7.6,7.6,0,0,1-.32,2.17,7.57,7.57,0,0,1-3.36,4.28l6.44,6.44c2.55-4.18,5.19-8.85,5.19-12.89A15.38,15.38,0,0,0,35.91,5.52h0a15.45,15.45,0,0,0-21.84,0,15.07,15.07,0,0,0-1.24,1.41l5.71,5.71A7.29,7.29,0,0,1,19.69,11.14Z"/>
  </g>
</svg>