<svg id="Livello_1" data-name="Livello 1"
  xmlns="http://www.w3.org/2000/svg" viewBox="0 0 48 48">
  <defs>
    <style>.cls-1{fill-rule:evenodd;}</style>
  </defs>
  <title>gps-ON</title>
  <path id="gps_ON" class="cls-1" d="M27.58,23.13a7.64,7.64,0,0,1-9.91-2.46,7.58,7.58,0,0,1-1-2,7.33,7.33,0,0,1-.32-2.18,7.41,7.41,0,0,1,2.22-5.32h0a7.67,7.67,0,0,1,10.75,0l0,0A7.47,7.47,0,0,1,31.6,16.5a7.67,7.67,0,0,1-.32,2.18,7.46,7.46,0,0,1-1,2,7.54,7.54,0,0,1-2.74,2.46ZM35.07,5.54a15.77,15.77,0,0,0-22.14,0,15.32,15.32,0,0,0-4.59,11c0,4.5,3.3,9.79,6.12,14.29.68,1.1,1.34,2.16,1.93,3.16L24,47l7.61-13h0c.57-1,1.24-2,1.93-3.15,2.82-4.52,6.12-9.81,6.12-14.31a15.38,15.38,0,0,0-4.59-11Z"/>
</svg>