<svg id="Livello_1" data-name="Livello 1"
  xmlns="http://www.w3.org/2000/svg" viewBox="0 0 48 48">
  <title>mic-OFF</title>
  <g id="mic-OFF">
    <path d="M41.08,24.79V17.48a1.4,1.4,0,0,0-1.37-1.39h0a1.39,1.39,0,0,0-1.36,1.38v7.31a11.51,11.51,0,0,1-2.12,6.66l2,1.95A14.28,14.28,0,0,0,41.08,24.79Z"/>
    <path d="M34.78,25.08V9.27A8.4,8.4,0,0,0,18,9.27v4.22L33.77,29A8,8,0,0,0,34.78,25.08Z"/>
    <path d="M44.32,43.22,34.55,33.6l-.13-.12h0l-2.36-2.32h0l-5.79-5.7L5.61,5.13a1.29,1.29,0,0,0-1.79,0l-.14.14A1.23,1.23,0,0,0,3.66,7l0,0,9.21,9.06a1.4,1.4,0,0,0-1.3,1.38v7.31A14.63,14.63,0,0,0,24.92,39.26v5.05H19.26s-1.4.56-1.4,1.32A1.37,1.37,0,0,0,19.24,47H33.4a1.37,1.37,0,0,0,1.41-1.34v0c0-.76-1.41-1.32-1.41-1.32H27.75V39.26a14.7,14.7,0,0,0,6.45-2.18l8.18,8.05a1.29,1.29,0,0,0,1.8,0l.14-.14a1.24,1.24,0,0,0,0-1.75ZM26.38,36.54h-.09a11.88,11.88,0,0,1-12-11.76V17.52L18,21.11v4a8.4,8.4,0,0,0,11.73,7.57l2.45,2.42a12.13,12.13,0,0,1-5.77,1.47Z"/>
  </g>
</svg>