<svg id="Livello_1" data-name="Livello 1"
  xmlns="http://www.w3.org/2000/svg" viewBox="0 0 48 48">
  <title>mic-ON</title>
  <g id="mic-ON">
    <path d="M24,32.64h0a8.4,8.4,0,0,0,8.68-8.08V9.09A8.39,8.39,0,0,0,24,1h0a8.39,8.39,0,0,0-8.68,8.08V24.56A8.39,8.39,0,0,0,24,32.64Z"/>
    <path d="M37.41,15.77A1.4,1.4,0,0,0,36,17.17v7.38a11.94,11.94,0,0,1-12,11.88H24A12,12,0,0,1,12,24.55V17.17a1.37,1.37,0,1,0-2.74,0v7.39A14.74,14.74,0,0,0,22.59,39.18v5.1H16.91s-1.4.57-1.4,1.34A1.38,1.38,0,0,0,16.89,47h14.2a1.39,1.39,0,0,0,1.41-1.36v0c0-.77-1.41-1.34-1.41-1.34H25.42v-5.1A14.74,14.74,0,0,0,38.79,24.56V17.17A1.39,1.39,0,0,0,37.41,15.77Z"/>
  </g>
</svg>