<svg id="Livello_1" data-name="Livello 1"
  xmlns="http://www.w3.org/2000/svg" viewBox="0 0 48 48">
  <title>photo</title>
  <path id="photo" d="M23.39,10,15.9,2.48A23.16,23.16,0,0,0,5.24,10.73H23.08a.44.44,0,0,0,.44-.44.4.4,0,0,0-.13-.31Zm-9.15,4.29H3.17A22.93,22.93,0,0,0,1.39,28.19L14.55,15a.45.45,0,0,0-.31-.76Zm19.49,0V3.16A22.92,22.92,0,0,0,19.81,1.39L33,14.55a.45.45,0,0,0,.76-.31Zm12.89,5.57L33.45,33a.45.45,0,0,0,0,.63.48.48,0,0,0,.31.13H44.83A22.93,22.93,0,0,0,46.62,19.81ZM38,23.4l7.5-7.5A23.17,23.17,0,0,0,37.27,5.22V23.08a.44.44,0,0,0,.44.44.44.44,0,0,0,.31-.13ZM20.2,33.48a.9.9,0,0,0,.62.25h6.59a.9.9,0,0,0,.63-.26l5.44-5.53a.91.91,0,0,0,.26-.62V20.59a.9.9,0,0,0-.27-.63l-5.53-5.44a.9.9,0,0,0-.62-.26H20.59a.86.86,0,0,0-.62.27l-5.45,5.53a.89.89,0,0,0-.25.62V27.4a.87.87,0,0,0,.27.64ZM24.6,38l7.5,7.5a23.22,23.22,0,0,0,10.66-8.25H24.91a.44.44,0,0,0-.44.44A.44.44,0,0,0,24.6,38ZM14.27,33.76V44.83a22.93,22.93,0,0,0,13.92,1.78L15,33.45a.45.45,0,0,0-.63,0,.44.44,0,0,0-.13.31ZM10,24.6l-7.5,7.5a23.09,23.09,0,0,0,8.25,10.68V24.92A.45.45,0,0,0,10,24.6Z"/>
</svg>