<svg id="Livello_1" data-name="Livello 1"
  xmlns="http://www.w3.org/2000/svg" viewBox="0 0 48 48">
  <title>switch-cam</title>
  <g id="switch_cam">
    <path d="M31.67,14.42H29.75L27.83,12.5H20.17l-1.92,1.92H16.33a3.84,3.84,0,0,0-3.83,3.83v11.5a3.84,3.84,0,0,0,3.83,3.83H31.67a3.84,3.84,0,0,0,3.83-3.83V18.25A3.84,3.84,0,0,0,31.67,14.42ZM24,27.83A3.83,3.83,0,1,1,27.83,24,3.82,3.82,0,0,1,24,27.83Z"/>
    <path d="M17.43,2,26,10.57V4.91A19.17,19.17,0,0,1,43.16,22.07H47a23,23,0,0,0-24.88-21A23.28,23.28,0,0,0,17.43,2Z"/>
    <path d="M22,43.09A19.17,19.17,0,0,1,4.84,25.94H1a23,23,0,0,0,24.88,21,23.41,23.41,0,0,0,4.69-.9L22,37.43Z"/>
  </g>
</svg>