<svg id="Livello_1" data-name="Livello 1"
  xmlns="http://www.w3.org/2000/svg" viewBox="0 0 80 80" width="80px" height="80px">
  <defs>
    <style>.cls-1{fill:#858788;}</style>
  </defs>
  <title>wait</title>
  <path class="cls-1" d="M23,26.23A12.54,12.54,0,1,0,10.46,13.69,12.53,12.53,0,0,0,23,26.23ZM23,3.9a9.8,9.8,0,1,1-9.8,9.8h0A9.83,9.83,0,0,1,23,3.9Z"/>
  <path class="cls-1" d="M74.27,69.47H61.21V47.05A17.91,17.91,0,0,0,75.5,29.4V24.11a4.77,4.77,0,0,0-9.53,0V29.4A8.43,8.43,0,0,1,61.21,37V5.58a4.77,4.77,0,0,0-9.53,0V44.85a8.49,8.49,0,0,1-4.15-7.24V30.73a4.77,4.77,0,0,0-9.53,0v6.88A18,18,0,0,0,51.77,55.08V69.47H41.18s-4.68,0-4.68-7L10,62.41c0,7.06-5.11,7.06-5.11,7.06H5.7A4.77,4.77,0,0,0,5.58,79H74.36a4.74,4.74,0,0,0,4.76-4.73v0A4.87,4.87,0,0,0,74.27,69.47Z"/>
  <path class="cls-1" d="M23,19.78a6.09,6.09,0,1,0-6.09-6.09h0A6.08,6.08,0,0,0,23,19.78Z"/>
</svg>